<svg aria-hidden="true" style="position: absolute; width: 0; height: 0; overflow: hidden;" version="1.1" xmlns="http://www.w3.org/2000/svg" xmlns:xlink="http://www.w3.org/1999/xlink">
<defs>
<symbol id="icon-avatar_face_girl" viewBox="0 0 32 32">
<path fill="#ee4036" style="fill: var(--color1, #ee4036)" d="M24.4 15.593c0.433 0.607-0.213 1.2 0.173 2.167 0.347 0.867 1.073 0.893 1.327 1.847 0.093 0.353 0.12 0.82 0 1.127-0.633 1.627-6.713 2.147-7.74-0.027-0.867-1.833 1.9-5.473 4.42-5.66 0.213-0.020 1.36-0.1 1.82 0.547z"></path>
<path fill="#ee4036" style="fill: var(--color1, #ee4036)" d="M13.253 15.593c0.433 0.607-0.213 1.2 0.173 2.167 0.347 0.867 1.073 0.893 1.327 1.847 0.093 0.353 0.12 0.82 0 1.127-0.633 1.627-6.713 2.147-7.74-0.027-0.867-1.833 1.9-5.473 4.42-5.66 0.213-0.020 1.36-0.1 1.82 0.547z"></path>
<path fill="#f9b17b" style="fill: var(--color2, #f9b17b)" d="M23.82 16.147h-15.587c-0.86 0-1.56-0.7-1.56-1.56v-0.367c0-0.86 0.7-1.56 1.56-1.56h15.587c0.86 0 1.56 0.7 1.56 1.56v0.367c0 0.86-0.7 1.56-1.56 1.56z"></path>
<path fill="#f9ae7b" style="fill: var(--color3, #f9ae7b)" d="M14.12 21.12h3.96v3.593h-3.96v-3.593z"></path>
<path fill="#d5855b" style="fill: var(--color4, #d5855b)" opacity="0.5" d="M16.473 18.080c-0.067-0.020-0.133-0.040-0.2-0.053-0.433-0.013-0.867 0-1.3 0.033-0.287 0.053-0.573 0.113-0.853 0.173v4.387c0.587 0.173 1.067 0.24 1.333 0.273 0.253 0.033 0.54 0.053 0.867 0.040 0.28-0.007 0.54-0.033 0.76-0.073 0.2-0.027 0.567-0.087 1.020-0.227 0-0.027 0-0.053 0-0.080v-4.22c-0.56-0.020-1.113-0.1-1.627-0.253z"></path>
<path fill="#f9b17b" style="fill: var(--color2, #f9b17b)" d="M17.053 21.893c-0.227 0.033-0.493 0.067-0.78 0.073-0.333 0.007-0.627-0.013-0.887-0.040-0.693-0.073-2.813-0.393-4.48-2.113-0.32-0.327-1.16-1.213-1.607-2.653-0.187-0.607-0.293-1.253-0.293-1.927v-4.98c0-3.573 2.9-6.473 6.473-6.473h1.080c3.573 0 6.473 2.9 6.473 6.473v4.98c-0.013 0.533-0.14 2.727-1.893 4.58-1.587 1.667-3.513 2-4.087 2.080z"></path>
<path fill="#8a5d3b" style="fill: var(--color5, #8a5d3b)" d="M16.447 17.373c-0.013 0-0.020 0-0.033 0-1.127-0.233-1.64-0.493-1.653-0.84-0.013-0.233 0.193-0.367 0.413-0.513 0.193-0.127 0.427-0.28 0.6-0.533 0.267-0.413 0.3-0.987 0.093-1.72-0.027-0.087 0.027-0.173 0.107-0.193 0.087-0.027 0.173 0.027 0.193 0.107 0.233 0.82 0.187 1.487-0.133 1.98-0.207 0.307-0.48 0.493-0.687 0.627-0.12 0.080-0.273 0.18-0.267 0.233 0 0.027 0.053 0.267 1.407 0.547 0.087 0.020 0.14 0.1 0.12 0.187-0.020 0.067-0.087 0.12-0.16 0.12z"></path>
<path fill="#321b0f" style="fill: var(--color6, #321b0f)" d="M20.573 14.44c0 0.622-0.322 1.127-0.72 1.127s-0.72-0.504-0.72-1.127c0-0.622 0.322-1.127 0.72-1.127s0.72 0.504 0.72 1.127z"></path>
<path fill="#321b0f" style="fill: var(--color6, #321b0f)" d="M13.327 14.44c0 0.622-0.322 1.127-0.72 1.127s-0.72-0.504-0.72-1.127c0-0.622 0.322-1.127 0.72-1.127s0.72 0.504 0.72 1.127z"></path>
<path fill="#fff" style="fill: var(--color7, #fff)" d="M17.033 18.647c-0.173 0.020-0.7 0.067-1.373 0-0.347-0.033-0.78-0.107-1.267-0.247 0.073 0.1 0.76 0.947 1.933 0.933 1.127-0.013 1.787-0.82 1.867-0.927-0.293 0.093-0.687 0.187-1.16 0.24z"></path>
<path fill="#ee4036" style="fill: var(--color1, #ee4036)" d="M24.533 7.98c-0.293-1.34-0.973-2.28-1.293-2.72-0.193-0.26-0.88-1.16-2.080-1.967-2.46-1.647-5.113-1.56-6.507-1.52-0.893 0.027-2.16 0.080-3.64 0.693-0.2 0.080-1.14 0.48-2.207 1.3-0.62 0.473-1.387 1.060-1.947 1.947-0.993 1.567-0.88 3.3-0.76 4.14 0.013 0.473 0.147 1.44 0.787 2.38 0.987 1.453 2.52 2.14 3.413 1.533 0.52-0.353 0.713-1.060 0.593-1.873 0.287 0.053 0.587 0.080 0.9 0.080 2 0 3.627-1.193 3.627-2.667 0-0.013 0-0.020 0-0.033 0.233 0.173 0.507 0.3 0.8 0.367 0 0 0.233 0.053 0.48 0.053 0.527 0 1.313-0.453 2-1.273 0.060-0.013 0.16-0.027 0.273-0.040 0.4-0.033 0.707 0.047 1.72 0.32 0.153 0.040 0.273 0.073 0.36 0.1 0.053 0.747 0.3 2.707 1.707 3.867 0.333 0.28 0.507 0.32 0.647 0.3 0.893-0.080 1.62-2.747 1.127-4.987z"></path>
<path fill="#ee4036" style="fill: var(--color1, #ee4036)" d="M18.58 12.107c0.233 0.187 0.653 0.047 1.56 0.193 0.853 0.14 1.327 0.4 1.453 0.313 0.12-0.080-0.2-0.36-0.247-0.4-0.387-0.327-0.953-0.467-1.46-0.58-0.587-0.133-0.92-0.207-1.167-0.107-0.267 0.12-0.347 0.42-0.14 0.58z"></path>
<path fill="#3b2314" style="fill: var(--color8, #3b2314)" d="M20.407 14.073c-0.18 0-0.32-0.047-0.373-0.067-0.080-0.033-0.12-0.127-0.087-0.207s0.127-0.12 0.207-0.087c0.060 0.027 0.287 0.1 0.527-0.013 0.233-0.107 0.327-0.313 0.353-0.373 0.033-0.080 0.12-0.12 0.2-0.093 0.080 0.033 0.12 0.12 0.093 0.2-0.047 0.113-0.18 0.4-0.513 0.547-0.147 0.073-0.287 0.093-0.407 0.093z"></path>
<path fill="#3b2314" style="fill: var(--color8, #3b2314)" d="M11.967 14.14c-0.12 0-0.26-0.020-0.4-0.087-0.333-0.153-0.473-0.433-0.513-0.547-0.033-0.080 0.013-0.173 0.093-0.2 0.080-0.033 0.173 0.007 0.2 0.093 0.020 0.060 0.12 0.267 0.353 0.373 0.24 0.107 0.467 0.033 0.527 0.013 0.080-0.033 0.173 0.007 0.207 0.087s-0.007 0.173-0.087 0.207c-0.067 0.013-0.2 0.060-0.38 0.060z"></path>
<path fill="#f9b17b" style="fill: var(--color2, #f9b17b)" d="M23.667 25.32c-1.493-0.64-3.967-1.487-7.133-1.6-3.127-0.113-5.627 0.527-7.16 1.053-0.493 0.147-1.473 0.52-2.387 1.427-0.347 0.347-1.040 1.127-1.42 2.34-0.167 0.54-0.26 1.107-0.26 1.7v0h21.367c-0.007-0.553-0.113-2.593-1.673-4.040-0.447-0.42-0.92-0.7-1.333-0.88z"></path>
<path fill="#f6921e" style="fill: var(--color9, #f6921e)" d="M6.453 26.727c-0.313 0.42-0.653 0.993-0.88 1.727-0.167 0.54-0.26 1.107-0.26 1.7v0h21.367c-0.007-0.48-0.087-2.067-1.113-3.427h-19.113z"></path>
<path fill="#fded16" style="fill: var(--color10, #fded16)" d="M23.48 15.96c0 0.21-0.17 0.38-0.38 0.38s-0.38-0.17-0.38-0.38c0-0.21 0.17-0.38 0.38-0.38s0.38 0.17 0.38 0.38z"></path>
<path fill="#fded16" style="fill: var(--color10, #fded16)" d="M9.34 15.98c0 0.221-0.179 0.4-0.4 0.4s-0.4-0.179-0.4-0.4c0-0.221 0.179-0.4 0.4-0.4s0.4 0.179 0.4 0.4z"></path>
</symbol>
</defs>
</svg>
